<svg xmlns="http://www.w3.org/2000/svg" width="132.061" height="35.046" viewBox="0 0 132.061 35.046"><g transform="translate(0 0)"><path d="M80.82,0a4.754,4.754,0,0,0-3.765,7.664l-7.735,9.326a3.553,3.553,0,0,0-4.431,1.07L41.62,8.689c.009-.106.031-.208.031-.317a3.653,3.653,0,1,0-.81,2.254L64.168,20.02c0,.072-.022.141-.022.214A3.613,3.613,0,1,0,70.859,18.4L78.662,9A4.758,4.758,0,1,0,80.82,0" transform="translate(-10.466 0)" fill="#7ec157"></path><path d="M6.264,25.046H19.369v-4.8H6.264v-6.93H21V7.987H0V37.4H21.679V32.065H6.264Z" transform="translate(0 -2.428)" fill="#207bbf"></path><rect width="7.523" height="22.398" transform="translate(23.96 12.571)" fill="#207bbf"></rect><rect width="8.293" height="22.398" transform="translate(66.371 12.648)" fill="#207bbf"></rect><path d="M161.445,6.966a15.089,15.089,0,1,0,15.1,15.09,15.1,15.1,0,0,0-15.1-15.09m0,24.641a9.3,9.3,0,0,1-9.027-9.551,9.041,9.041,0,1,1,18.054,0,9.3,9.3,0,0,1-9.027,9.551" transform="translate(-44.489 -2.118)" fill="#207bbf"></path><path d="M135.666,7.987h-8.023L116.475,20.208V7.987h-6.22V37.4h6.22V29l3.275-3.586L129.036,37.4h6.986l-12.03-16.629" transform="translate(-33.518 -2.428)" fill="#207bbf"></path><path d="M63.005,13.722a2.471,2.471,0,0,1,.486.046,7.807,7.807,0,0,1,5.38,3.043,7.286,7.286,0,0,1,6.759-1.442C72.685,9.287,66,8.183,64.565,8.014a4.038,4.038,0,0,0-.468-.027H50.425V37.4H63.931a5.381,5.381,0,0,0,.741-.05c1.723-.239,8.008-1.536,10.893-7.892A7.272,7.272,0,0,1,69,28.1c-2.206,3.086-6.086,3.792-7.159,3.93a3.661,3.661,0,0,1-.478.031H56.689l-.058-18.343Z" transform="translate(-15.33 -2.428)" fill="#207bbf"></path></g></svg>